# File created by Blade
# Date/Time:  Tue Jan 27 20:08:00 2015
#---------------------------------------------------------
:version 1.10
:name HOM
:units
  mass 1.0
  length 1.000000
  angle deg
:documentation
     Acclaim Skeleton File
:root
   axis xyz
   order TX TY TZ RX RY RZ
   position 0.000000 0.000000 0.000000
   orientation 0 0 0
:bonedata
   begin
      id 1
      name Spine_dum
      direction 0.000000 1.000000 0.000000
      length 6.116652
      axis 0.0 0.0 0.0 xyz
   end
   begin
      id 2
      name LeftUpLeg_dum
      direction 1.000000 0.000000 0.000000
      length 4.711765
      axis 0.0 0.0 0.0 xyz
   end
   begin
      id 3
      name RightUpLeg_dum
      direction -1.000000 0.000000 0.000000
      length 4.711765
      axis 0.0 0.0 0.0 xyz
   end
   begin
      id 4
      name Spine
      direction 0.000000 1.000000 0.000000
      length 0.000000
      axis 0.0 0.0 0.0 xyz
      dof rx ry rz
   end
   begin
      id 5
      name Spine_dum1
      direction 0.000000 1.000000 0.000000
      length 15.225563
      axis 0.0 0.0 0.0 xyz
   end
   begin
      id 6
      name Spine_dum2
      direction 0.000000 1.000000 0.000000
      length 8.977654
      axis 0.0 0.0 0.0 xyz
   end
   begin
      id 7
      name Spine_dum3
      direction 0.000000 1.000000 0.000000
      length 8.977654
      axis 0.0 0.0 0.0 xyz
   end
   begin
      id 8
      name Head
      direction 0.000000 1.000000 0.000000
      length 4.527550
      axis 0.0 0.0 0.0 xyz
      dof rx ry rz
   end
   begin
      id 9
      name LeftShoulder
      direction 1.000000 0.000000 0.000000
      length 7.110130
      axis 0.0 0.0 -90.0 xyz
      dof rx ry rz
   end
   begin
      id 10
      name LeftArm
      direction 1.000000 0.000000 0.000000
      length 10.398341
      axis 0.0 0.0 -90.0 xyz
      dof rx ry rz
   end
   begin
      id 11
      name LeftForeArm
      direction 1.000000 0.000000 0.000000
      length 8.888997
      axis 0.0 0.0 -90.0 xyz
      dof ry rz rx
   end
   begin
      id 12
      name LeftHand
      direction 0.000000 0.000000 0.000000
      length 0.000000
      axis 0.0 0.0 -90.0 xyz
      dof rx ry rz
   end
   begin
      id 13
      name LeftHand_dum1
      direction 0.000000 0.000000 0.000000
      length 0.000000
      axis 0.0 0.0 -90.0 xyz
   end
   begin
      id 14
      name LeftHand_dum2
      direction 1.000000 0.000000 0.000000
      length 3.937000
      axis 0.0 0.0 -90.0 xyz
   end
   begin
      id 15
      name LeftHandThumb1
      direction 0.000000 0.000000 1.000000
      length 3.937000
      axis 0.0 0.0 -90.0 xyz
      dof rx rz ry
   end
   begin
      id 16
      name RightShoulder
      direction -1.000000 0.000000 0.000000
      length 7.110130
      axis 0.0 0.0 90.0 xyz
      dof rx ry rz
   end
   begin
      id 17
      name RightArm
      direction -1.000000 0.000000 0.000000
      length 10.398341
      axis 0.0 0.0 90.0 xyz
      dof rx ry rz
   end
   begin
      id 18
      name RightForeArm
      direction -1.000000 0.000000 0.000000
      length 8.888997
      axis 0.0 0.0 90.0 xyz
      dof ry rz rx
   end
   begin
      id 19
      name RightHand
      direction 0.000000 0.000000 0.000000
      length 0.000000
      axis 0.0 0.0 90.0 xyz
      dof rx ry rz
   end
   begin
      id 20
      name RightHand_dum1
      direction 0.000000 0.000000 0.000000
      length 0.000000
      axis 0.0 0.0 90.0 xyz
   end
   begin
      id 21
      name RightHand_dum2
      direction -1.000000 0.000000 0.000000
      length 3.937000
      axis 0.0 0.0 90.0 xyz
   end
   begin
      id 22
      name RightHandThumb1
      direction 0.000000 0.000000 1.000000
      length 3.937000
      axis 0.0 0.0 90.0 xyz
      dof rx rz ry
   end
   begin
      id 23
      name LeftUpLeg
      direction 0.000000 -1.000000 0.000000
      length 15.510451
      axis 0.0 0.0 0.0 xyz
      dof rx ry rz
   end
   begin
      id 24
      name LeftLeg
      direction 0.000000 -1.000000 0.000000
      length 14.858061
      axis 0.0 0.0 0.0 xyz
      dof rx ry rz
   end
   begin
      id 25
      name LeftFoot
      direction 0.000000 -0.258819 0.965926
      length 5.128852
      axis 15.0 0.0 0.0 xyz
      dof rx ry rz
   end
   begin
      id 26
      name LeftToeBase
      direction 0.000000 0.000000 1.000000
      length 2.952750
      axis 0.0 0.0 0.0 xyz
      dof rx ry rz
   end
   begin
      id 27
      name RightUpLeg
      direction 0.000000 -1.000000 0.000000
      length 15.510451
      axis 0.0 0.0 0.0 xyz
      dof rx ry rz
   end
   begin
      id 28
      name RightLeg
      direction 0.000000 -1.000000 0.000000
      length 14.858061
      axis 0.0 0.0 0.0 xyz
      dof rx ry rz
   end
   begin
      id 29
      name RightFoot
      direction 0.000000 -0.258819 0.965926
      length 5.128852
      axis 15.0 0.0 0.0 xyz
      dof rx ry rz
   end
   begin
      id 30
      name RightToeBase
      direction 0.000000 0.000000 1.000000
      length 2.952750
      axis 0.0 0.0 0.0 xyz
      dof rx ry rz
   end
:hierarchy
   begin
      root Spine_dum LeftUpLeg_dum RightUpLeg_dum
      Spine_dum Spine
      LeftUpLeg_dum LeftUpLeg
      RightUpLeg_dum RightUpLeg
      Spine Spine_dum1 Spine_dum2 Spine_dum3
      Spine_dum1 Head
      Spine_dum2 LeftShoulder
      Spine_dum3 RightShoulder
      LeftShoulder LeftArm
      LeftArm LeftForeArm
      LeftForeArm LeftHand
      LeftHand LeftHand_dum1 LeftHand_dum2
      LeftHand_dum1 LeftHandThumb1
      RightShoulder RightArm
      RightArm RightForeArm
      RightForeArm RightHand
      RightHand RightHand_dum1 RightHand_dum2
      RightHand_dum1 RightHandThumb1
      LeftUpLeg LeftLeg
      LeftLeg LeftFoot
      LeftFoot LeftToeBase
      RightUpLeg RightLeg
      RightLeg RightFoot
      RightFoot RightToeBase
   end

# File created by Blade
# Date/Time:  Tue Jan 27 20:07:51 2015
# Frame Rate: 120.000 fps
#------------------------------------------------------
:FULLY-SPECIFIED
:DEGREES
898
root 6.445552 32.332720 -5.159820 -5.784641 14.200421 -1.831085
Spine 6.337144 -0.081021 -3.239779
Head 16.142730 -11.394213 4.574501
LeftShoulder -12.463043 -4.583407 30.887607
LeftArm -0.821319 -7.639684 -79.991778
LeftForeArm -10.407920 -0.000000 111.763037
LeftHand 10.896051 -0.000000 11.102075
LeftHandThumb1 -26.253704 0.000000 33.147579
RightShoulder -19.448349 -17.122747 -21.242253
RightArm 13.061007 -25.832019 90.819001
RightForeArm -15.809698 0.000000 27.244494
RightHand 16.682982 -0.000000 2.477951
RightHandThumb1 -24.326973 -0.000000 -32.862282
LeftUpLeg 10.170250 2.757310 -5.674315
LeftLeg -1.888526 -0.000000 0.000000
LeftFoot -16.906155 18.095544 -18.441267
LeftToeBase 19.239053 -0.000000 -0.000000
RightUpLeg -41.978762 2.142843 11.675132
RightLeg 71.818477 -0.000000 -0.000000
RightFoot 29.539174 -24.847881 19.904960
RightToeBase 14.073167 -0.000000 -0.000000
899
root 6.431283 32.336701 -5.185783 -5.806519 13.550044 -1.890467
Spine 6.382836 0.329466 -3.129515
Head 16.403943 -11.335961 4.519471
LeftShoulder -12.397191 -4.525734 30.915851
LeftArm -0.929573 -7.705407 -80.034031
LeftForeArm -10.443103 -0.000000 111.922668
LeftHand 11.000673 -0.000000 11.197718
LeftHandThumb1 -26.253704 0.000000 33.147579
RightShoulder -19.531549 -17.307667 -21.152798
RightArm 13.299275 -26.049253 90.636131
RightForeArm -15.755087 -0.000000 27.204906
RightHand 16.670658 -0.000000 2.353751
RightHandThumb1 -24.326973 -0.000000 -32.862282
LeftUpLeg 10.137180 2.920365 -5.613719
LeftLeg -1.835840 -0.000000 0.000000
LeftFoot -17.098941 18.476395 -18.536491
LeftToeBase 19.231518 -0.000000 -0.000000
RightUpLeg -42.046646 2.030427 11.486421
RightLeg 71.803026 -0.000000 -0.000000
RightFoot 29.488798 -24.881419 19.977690
RightToeBase 13.788570 -0.000000 -0.000000
900
root 6.415657 32.339848 -5.211953 -5.791086 12.907079 -1.939889
Spine 6.391464 0.644953 -3.038819
Head 16.650660 -11.170215 4.439748
LeftShoulder -12.421777 -4.481328 30.938166
LeftArm -1.107521 -7.761231 -80.029488
LeftForeArm -10.404326 -0.000000 112.111988
LeftHand 10.943219 -0.000000 11.044405
LeftHandThumb1 -26.253704 0.000000 33.147579
RightShoulder -19.470321 -17.310677 -21.164390
RightArm 13.318690 -26.129675 90.598122
RightForeArm -15.836423 -0.000000 27.141014
RightHand 16.715235 -0.000000 2.376594
RightHandThumb1 -24.326973 -0.000000 -32.862282
LeftUpLeg 10.068673 3.070587 -5.564324
LeftLeg -1.784865 -0.000000 0.000000
LeftFoot -17.282456 18.866969 -18.633817
LeftToeBase 19.192384 -0.000000 -0.000000
RightUpLeg -42.154847 1.915517 11.286567
RightLeg 71.824717 -0.000000 -0.000000
RightFoot 29.427108 -24.926697 20.061719
RightToeBase 13.249438 -0.000000 -0.000000
901
root 6.395983 32.345268 -5.234673 -5.797468 12.235996 -1.999821
Spine 6.424581 1.019663 -2.977951
Head 16.870520 -10.996404 4.478296
LeftShoulder -12.513726 -4.033383 30.920692
LeftArm -0.802679 -7.810294 -80.115727
LeftForeArm -10.358857 -0.000000 112.258982
LeftHand 10.863075 0.000000 11.021802
LeftHandThumb1 -26.253704 0.000000 33.147579
RightShoulder -19.425430 -17.332222 -21.100770
RightArm 13.375012 -26.267507 90.493022
RightForeArm -15.689510 -0.000000 27.083558
RightHand 16.698035 -0.000000 2.623886
RightHandThumb1 -24.326973 -0.000000 -32.862282
LeftUpLeg 10.030768 3.246980 -5.486262
LeftLeg -1.735649 -0.000000 0.000000
LeftFoot -17.596622 19.236571 -18.936908
LeftToeBase 18.854357 -0.000000 -0.000000
RightUpLeg -42.210507 1.843958 11.117615
RightLeg 71.771248 -0.000000 -0.000000
RightFoot 29.526186 -24.906421 19.826156
RightToeBase 13.274982 -0.000000 -0.000000
902
root 6.378039 32.349160 -5.260762 -5.790183 11.559640 -2.064314
Spine 6.453469 1.383157 -2.875338
Head 17.081403 -10.808859 4.425479
LeftShoulder -12.583237 -3.777984 30.911720
LeftArm -0.753034 -7.890087 -80.151803
LeftForeArm -10.397732 -0.000000 112.435383
LeftHand 10.819480 0.000000 11.058066
LeftHandThumb1 -26.253704 0.000000 33.147579
RightShoulder -19.399758 -17.342253 -21.079783
RightArm 13.450198 -26.515257 90.364010
RightForeArm -15.575934 -0.000000 27.027875
RightHand 16.726232 -0.000000 2.488852
RightHandThumb1 -24.326973 -0.000000 -32.862282
LeftUpLeg 9.969991 3.402396 -5.415124
LeftLeg -1.682093 -0.000000 0.000000
LeftFoot -17.813478 19.546920 -19.233759
LeftToeBase 18.391651 -0.000000 -0.000000
RightUpLeg -42.290923 1.817634 10.946057
RightLeg 71.740475 -0.000000 -0.000000
RightFoot 29.545019 -24.885974 19.714268
RightToeBase 13.335323 -0.000000 -0.000000
903
root 6.359445 32.353263 -5.285184 -5.778155 10.880049 -2.135872
Spine 6.466553 1.777615 -2.757010
Head 17.293656 -10.661901 4.356654
LeftShoulder -12.596688 -3.724551 30.948638
LeftArm -0.959420 -7.997187 -80.155754
LeftForeArm -10.416533 -0.000000 112.620394
LeftHand 10.872505 -0.000000 10.928961
LeftHandThumb1 -26.253704 0.000000 33.147579
RightShoulder -19.360632 -17.330711 -21.085798
RightArm 13.452951 -26.675587 90.302757
RightForeArm -15.433293 -0.000000 26.984501
RightHand 16.614983 -0.000000 2.552271
RightHandThumb1 -24.326973 -0.000000 -32.862282
LeftUpLeg 9.887476 3.494916 -5.351598
LeftLeg -1.586522 -0.000000 0.000000
LeftFoot -18.082694 20.039391 -19.347770
LeftToeBase 18.430592 -0.000000 -0.000000
RightUpLeg -42.369872 1.809412 10.778296
RightLeg 71.714203 -0.000000 -0.000000
RightFoot 29.513832 -24.827472 19.722176
RightToeBase 13.204711 -0.000000 -0.000000
904
root 6.340460 32.358637 -5.310087 -5.757802 10.172907 -2.208229
Spine 6.480777 2.191353 -2.635379
Head 17.455874 -10.482773 4.300336
LeftShoulder -12.674063 -3.632497 30.949758
LeftArm -1.097662 -8.086550 -80.138726
LeftForeArm -10.389173 0.000000 112.790346
LeftHand 10.864907 0.000000 10.863635
LeftHandThumb1 -26.253704 0.000000 33.147579
RightShoulder -19.266580 -17.178592 -21.145215
RightArm 13.269012 -26.749535 90.359728
RightForeArm -15.483906 -0.000000 26.919986
RightHand 16.532968 0.000000 2.522453
RightHandThumb1 -24.326973 -0.000000 -32.862282
LeftUpLeg 9.786632 3.622146 -5.277457
LeftLeg -1.454035 -0.000000 0.000000
LeftFoot -18.400043 20.517965 -19.407909
LeftToeBase 18.982249 -0.000000 -0.000000
RightUpLeg -42.446005 1.842121 10.615914
RightLeg 71.674626 -0.000000 -0.000000
RightFoot 29.547128 -24.785558 19.744013
RightToeBase 12.749821 -0.000000 -0.000000
905
root 6.318783 32.365291 -5.335727 -5.766895 9.443238 -2.287425
Spine 6.548136 2.675545 -2.500774
Head 17.590219 -10.322075 4.239696
LeftShoulder -12.756846 -3.462936 30.967952
LeftArm -1.111014 -8.195165 -80.199707
LeftForeArm -10.365148 -0.000000 112.900000
LeftHand 10.879284 -0.000000 10.876775
LeftHandThumb1 -26.253704 0.000000 33.147579
RightShoulder -19.291389 -17.318773 -21.056130
RightArm 13.482627 -26.831966 90.230908
RightForeArm -15.495367 -0.000000 26.814054
RightHand 16.632995 -0.000000 2.427246
RightHandThumb1 -24.326973 -0.000000 -32.862282
LeftUpLeg 9.689944 3.718296 -5.195243
LeftLeg -1.264927 -0.000000 0.000000
LeftFoot -18.786666 20.989730 -19.633763
LeftToeBase 18.471317 -0.000000 -0.000000
RightUpLeg -42.476953 1.908971 10.468689
RightLeg 71.603255 -0.000000 -0.000000
RightFoot 29.505294 -24.728091 19.830337
RightToeBase 13.465367 -0.000000 -0.000000
906
root 6.294127 32.373293 -5.357069 -5.756453 8.697351 -2.398988
Spine 6.571258 3.185410 -2.338961
Head 17.740269 -10.181967 4.180984
LeftShoulder -12.847839 -3.348421 30.983344
LeftArm -1.197730 -8.284961 -80.222412
LeftForeArm -10.380830 -0.000000 113.022816
LeftHand 10.854619 -0.000000 10.872161
LeftHandThumb1 -26.253704 0.000000 33.147579
RightShoulder -19.301576 -17.372641 -20.997268
RightArm 13.558646 -26.937638 90.141587
RightForeArm -15.426713 0.000000 26.731280
RightHand 16.654314 -0.000000 2.389402
RightHandThumb1 -24.326973 -0.000000 -32.862282
LeftUpLeg 9.556283 3.717043 -5.087640
LeftLeg -1.028554 -0.000000 0.000000
LeftFoot -19.286780 21.462925 -19.992361
LeftToeBase 18.500541 -0.000000 -0.000000
RightUpLeg -42.512403 2.018094 10.384003
RightLeg 71.509749 -0.000000 -0.000000
RightFoot 29.629883 -24.787395 19.783682
RightToeBase 12.392197 -0.000000 -0.000000
907
root 6.273540 32.381777 -5.379253 -5.752972 7.949972 -2.493964
Spine 6.612487 3.681368 -2.187027
Head 17.862187 -10.036231 4.131000
LeftShoulder -12.959076 -3.322702 31.046378
LeftArm -1.416093 -8.372002 -80.259210
LeftForeArm -10.391072 -0.000000 113.136479
LeftHand 10.800544 -0.000000 10.834744
LeftHandThumb1 -26.253704 0.000000 33.147579
RightShoulder -19.253226 -17.398271 -20.962462
RightArm 13.586427 -26.920228 90.115258
RightForeArm -15.394943 -0.000000 26.655979
RightHand 16.642395 -0.000000 2.355087
RightHandThumb1 -24.326973 -0.000000 -32.862282
LeftUpLeg 9.387420 3.697167 -5.004405
LeftLeg -0.692214 -0.000000 0.000000
LeftFoot -19.804588 21.899773 -20.353024
LeftToeBase 17.975341 -0.000000 -0.000000
RightUpLeg -42.538222 2.088888 10.306660
RightLeg 71.435301 -0.000000 -0.000000
RightFoot 29.681910 -24.773961 19.537204
RightToeBase 13.004962 -0.000000 -0.000000
